Coordinates
version=1
nRows=5
nColumns=40
inDegrees=yes

Units are S.I. units (second, meters, Newtons, ...)
Angles are in degrees.

endheader
time	pelvis_tilt	pelvis_list	pelvis_rotation	pelvis_tx	pelvis_ty	pelvis_tz	hip_flexion_r	hip_adduction_r	hip_rotation_r	knee_angle_r	knee_angle_r_beta	ankle_angle_r	subtalar_angle_r	mtp_angle_r	hip_flexion_l	hip_adduction_l	hip_rotation_l	knee_angle_l	knee_angle_l_beta	ankle_angle_l	subtalar_angle_l	mtp_angle_l	lumbar_extension	lumbar_bending	lumbar_rotation	arm_flex_r	arm_add_r	arm_rot_r	elbow_flex_r	pro_sup_r	wrist_flex_r	wrist_dev_r	arm_flex_l	arm_add_l	arm_rot_l	elbow_flex_l	pro_sup_l	wrist_flex_l	wrist_dev_l
     35.43500000	     -5.27986370	     -3.29596006	     -4.46413481	      1.00635300	      0.91899146	      0.47906883	     30.60603785	     -1.59792062	    -12.99897122	     14.51334698	     14.51334698	      0.45991978	      6.10620872	     10.32137323	     -0.25980469	     -4.65112797	     -9.45137535	     13.01775633	     13.01775633	     19.07524529	     -2.77763429	     -5.05501919	    -12.45275468	      3.81592397	      2.33040094	    -16.96774218	    -11.77612817	     -4.11977198	     25.67428346	     46.97529375	      0.00000000	      0.00000000	     22.90409115	    -21.81451978	     -6.14123202	     93.92650823	     47.29798171	      0.00000000	      0.00000000
     35.44635714	     -5.18146822	     -3.23594658	     -4.60287869	      1.00846239	      0.91713588	      0.48172635	     30.25208831	     -1.28812575	    -13.72975865	     14.05412050	     14.05412050	      0.34977526	      6.60800999	     10.44046623	     -1.19198206	     -4.68455972	     -9.67542693	     12.89818880	     12.89818880	     19.61784522	     -2.61774365	     -5.00918879	    -12.38597083	      3.71586290	      2.57458951	    -18.06120796	    -11.33197412	     -4.22584331	     25.58294409	     46.96898677	      0.00000000	      0.00000000	     23.23813523	    -21.77913274	     -6.43460239	     95.65766295	     47.36620951	      0.00000000	      0.00000000
     35.45771429	     -5.13026160	     -3.19967249	     -4.71856066	      1.01056925	      0.91520345	      0.48454321	     30.03982708	     -1.02184754	    -14.28285582	     14.16501852	     14.16501852	      0.18005418	      6.82449085	      9.75592045	     -1.96706849	     -4.80297887	     -9.99800398	     13.00044489	     13.00044489	     20.38885651	     -2.22379733	     -4.61502627	    -12.30735716	      3.66842401	      2.49582405	    -19.01328463	    -10.96592441	     -4.53006109	     26.02935145	     46.94734503	      0.00000000	      0.00000000	     22.99461660	    -21.87807252	     -6.93184862	     98.07143178	     47.47573606	      0.00000000	      0.00000000
     35.46907143	     -5.11463560	     -3.21533361	     -4.79208987	      1.01263290	      0.91323492	      0.48750389	     29.94214245	     -0.72838942	    -14.44434785	     14.73991760	     14.73991760	     -0.08761500	      6.33311830	      8.29836454	     -2.53525717	     -5.02542809	    -10.18889659	     13.43114016	     13.43114016	     21.24431845	     -1.96410968	     -4.11402341	    -12.21011650	      3.66662537	      2.45454746	    -19.72561214	    -10.62690221	     -4.66012057	     26.30994607	     46.92056432	      0.00000000	      0.00000000	     22.82175196	    -21.87963397	     -7.49377940	    100.03033682	     47.58263023	      0.00000000	      0.00000000
     35.48042857	     -5.01844790	     -3.30855457	     -4.81123909	      1.01478951	      0.91147244	      0.49055630	     29.64417044	     -0.36111833	    -14.33669050	     15.31536667	     15.31536667	     -1.10304343	      5.33525571	      4.40065128	     -3.03676786	     -5.39956420	    -10.49017477	     14.20915751	     14.20915751	     22.47920318	     -1.42711502	     -2.86570919	    -12.19239416	      3.74828963	      1.98355151	    -19.98980147	    -10.51428189	     -4.53323760	     26.74152188	     46.84368917	      0.00000000	      0.00000000	     22.16257999	    -22.13821172	     -8.45676986	    101.95125216	     47.76719623	      0.00000000	      0.00000000
